<svg xmlns="http://www.w3.org/2000/svg" width="863" height="853" fill="none" viewBox="0 0 863 853">
  <path fill="#fff" stroke="#EFECEB" stroke-width="2.5" d="M453.5 1.25c225.485 0 408.25 180.556 408.25 403.25S678.985 807.75 453.5 807.75 45.25 627.194 45.25 404.5 228.015 1.25 453.5 1.25Z"/>
  <path fill="#fff" stroke="#EFECEB" stroke-width="2.108" d="M452 66.054c189.968 0 343.946 152.21 343.946 339.946 0 187.736-153.978 339.946-343.946 339.946-189.968 0-343.946-152.21-343.946-339.946 0-187.736 153.978-339.946 343.946-339.946Z"/>
  <path fill="#fff" stroke="#EFECEB" stroke-width="1.727" d="M444 126.863c155.83 0 282.137 124.76 282.137 278.637S599.83 684.137 444 684.137c-155.83 0-282.137-124.76-282.137-278.637S288.17 126.863 444 126.863Z"/>
  <circle cx="802.5" cy="32.5" r="32.5" fill="#EBD96B"/>
  <ellipse cx="58" cy="35" fill="#ECE8E7" rx="14" ry="15"/>
  <ellipse cx="58" cy="35" fill="#89807A" rx="14" ry="15"/>
  <circle cx="22" cy="831" r="22" fill="#EBD96B"/>
  <circle cx="852" cy="719" r="11" fill="#89807A"/>
</svg>
