<svg width="119" height="46" viewBox="0 0 119 46" fill="none" xmlns="http://www.w3.org/2000/svg">
<path d="M116.668 34.4321C117.181 34.2191 117.853 34.4159 118.168 35.0124C118.441 35.6177 118.102 36.2861 117.746 36.6829C117.188 37.391 116.121 36.7385 116.09 35.7626C116.022 35.2133 116.253 34.6171 116.668 34.4321ZM22.7221 25.5733C21.9887 26.5579 21.4043 27.7333 21.0324 29.0154C21.3631 28.9028 21.6338 28.615 21.9209 28.3869C22.797 27.6502 23.539 26.6891 24.2784 25.7409C24.6006 25.2966 24.9327 24.7587 24.9181 24.1163C24.0615 24.104 23.3097 24.8268 22.7221 25.5733ZM22.1648 22.742C22.9241 22.0765 23.7973 21.5285 24.7298 21.5046C25.5273 21.4835 26.3587 22.0452 26.6865 23.0174C26.9689 23.7989 26.9592 24.725 26.6913 25.5112C26.2698 26.8047 25.4864 27.8215 24.6859 28.7342C23.475 30.0956 22.0939 31.2327 20.558 31.8602C20.5752 32.819 20.4835 33.8817 20.9529 34.7002C21.3594 35.2816 22.0585 35.3561 22.601 35.0955C23.3259 34.6665 24.0528 34.2115 24.6754 33.5554C26.4665 31.7265 28.0523 29.5848 29.5711 27.3874C30.3553 26.2578 31.0402 25.0041 31.9276 23.9995C32.1888 23.6896 32.6085 23.4825 32.9338 23.7514C33.2389 24.0096 33.216 24.559 33.1145 24.9557C32.9263 25.7049 32.5827 26.368 32.228 27.0018C30.3841 30.1864 28.2953 33.1413 25.9549 35.7241C24.7851 36.9616 23.4293 38.171 21.8596 38.1918C21.0016 38.2514 20.1772 37.7456 19.5479 37.0178C18.6023 35.6982 18.1689 33.8618 18.2071 32.0797C17.9537 31.9929 17.6792 31.8799 17.5284 31.5789C17.2882 31.162 17.4365 30.5731 17.6926 30.2333C17.9355 30.061 18.2194 30.0276 18.4827 29.9298C18.6778 29.2847 18.8109 28.61 19.023 27.9741C19.6953 25.9215 20.757 24.0431 22.1648 22.742ZM81.1476 22.1134C81.3975 21.6336 81.6698 21.0958 82.1194 20.9106C82.5578 20.7307 83.1598 20.9836 83.2812 21.6113C83.3706 21.9736 83.2261 22.3266 83.0881 22.6319C82.7333 23.392 82.4205 24.1832 82.1277 24.987C80.8702 27.9553 79.6568 30.9565 78.4141 33.9359C77.8797 35.1428 77.3947 36.4264 76.6094 37.4008C76.1791 37.96 75.5396 38.2157 74.9426 38.13C74.1414 37.9389 73.7211 36.9234 73.5081 35.9998C73.2143 34.6603 73.1523 33.259 73.0439 31.8799C72.2726 33.6024 71.4363 35.3138 70.3116 36.689C69.6852 37.4429 68.8628 38.1238 67.9695 37.9153C67.1902 37.7888 66.6763 36.8776 66.4373 35.9785C66.0395 34.6827 66.0996 33.2692 66.0977 31.9024C66.1144 30.0424 66.1437 28.1821 66.1801 26.3236C66.1714 26.2168 66.1534 26.0024 66.1445 25.8956C65.8597 26.0642 65.6812 26.4152 65.4692 26.6993C64.2539 28.5286 63.2602 30.5831 62.3297 32.6689C61.575 34.3464 60.9169 36.095 60.1406 37.7579C59.8238 38.3458 59.3838 39.0016 58.7786 38.9758C58.1195 38.9906 57.54 38.3022 57.4202 37.4826C57.3458 35.7241 57.5935 33.978 57.9082 32.2758C58.3798 29.7682 59.0311 27.3242 59.6929 24.8925C59.9014 24.1423 60.107 23.3884 60.3517 22.6567C60.6349 21.7513 61.7157 21.4973 62.1938 22.281C62.5724 22.8092 62.4549 23.5943 62.3362 24.2265C61.9708 26.0136 61.4832 27.7544 61.136 29.5488C62.08 27.8041 63.0097 26.0344 64.1219 24.4584C64.579 23.8309 65.1116 23.283 65.7161 22.9146C66.2019 22.6255 66.7979 22.6429 67.2524 23.0247C67.8403 23.4839 68.1312 24.362 68.2525 25.2039C68.4441 26.5531 68.3797 27.9331 68.373 29.2984C68.352 31.1994 68.174 33.1474 68.5338 35.0124C68.6409 34.9469 68.7527 34.8873 68.8474 34.7882C69.6146 33.9522 70.2084 32.8932 70.7957 31.8504C71.5732 30.4303 72.3142 28.9646 72.9026 27.3975C73.066 26.357 72.9523 25.2496 73.2212 24.2291C73.3493 23.8883 73.551 23.5791 73.799 23.3746C74.2922 23.2509 74.8936 23.5209 75.0891 24.1634C75.286 24.8503 75.2724 25.5983 75.3097 26.3196C75.3548 27.767 75.4542 29.2105 75.5689 30.65C75.6531 31.6669 75.6666 32.6976 75.8311 33.7005C76.3473 32.8437 76.7271 31.8664 77.1604 30.9403C78.51 28.0138 79.7227 24.9816 81.1476 22.1134ZM87.415 14.1179C88.1531 13.908 88.8304 14.9296 88.6583 15.8525C88.5597 16.3512 88.3055 16.9559 87.8547 16.9674C87.1557 16.8806 86.6105 15.9505 86.7406 15.0503C86.7903 14.5975 87.0754 14.2219 87.415 14.1179ZM55.7965 11.0375C58.24 10.5254 60.6933 9.77633 63.1855 9.9972C63.8941 10.0579 64.6899 10.3514 65.0727 11.1964C65.4322 11.8879 65.0438 12.9462 64.4243 13.0735C64.0616 13.0313 64.0014 12.4151 63.6512 12.3417C63.088 12.1673 62.5028 12.2664 61.9318 12.3148C59.9403 12.5576 57.955 12.951 56.0154 13.5857C55.6691 13.6417 55.7304 14.1935 55.6537 14.5244C55.3748 17.0651 54.9537 19.5762 54.7004 22.1222C54.2995 25.6688 53.9956 29.2302 53.6666 32.7878C53.5451 34.2684 53.259 35.7589 53.4467 37.2522C53.5479 38.2739 53.4263 39.2981 53.2716 40.2986C54.0043 40.2368 54.7167 39.9887 55.439 39.8252C56.7011 39.5339 57.978 39.3515 59.2557 39.2239C59.7949 39.2076 60.3651 39.1953 60.8673 39.4916C61.1399 39.6592 61.4056 40.1092 61.1934 40.4897C60.8577 41.0205 60.3643 41.3951 59.842 41.5215C58.8599 41.8155 57.8575 41.9692 56.8762 42.2645C54.7368 42.7976 52.5954 43.3443 50.5026 44.1382C49.8468 44.4022 49.1687 44.6279 48.5727 45.0854C48.2656 45.2899 48.1673 45.8122 47.8257 45.9485C47.1248 46.2189 46.333 45.3792 46.4208 44.4318C46.5003 43.6135 47.0369 43.0605 47.5312 42.6337C48.6338 41.6913 49.9645 41.4421 51.1904 40.8904C50.9408 37.8214 51.2 34.7323 51.3864 31.6681C51.5166 29.1832 51.8399 26.7251 52.1536 24.2699C52.5876 20.9047 53.1684 17.5749 53.7123 14.2381C49.6709 15.2188 45.9311 17.5662 41.9641 18.9007C41.1338 19.1238 40.2149 19.4548 39.4067 18.9599C38.8301 18.618 38.6779 17.5825 39.0002 16.9165C39.2117 16.4788 39.5684 16.1826 39.9517 16.056C41.218 15.6032 42.5465 15.617 43.8463 15.504C47.0685 14.1179 50.254 12.5278 53.5938 11.6687C53.8914 11.5569 54.2932 11.598 54.4547 11.1849C54.7234 10.6047 55.4875 10.4186 55.7965 11.0375ZM14.3779 8.94058C14.6282 8.56351 15.0493 8.30087 15.4307 8.4815C15.9377 8.74086 16.2944 9.40173 16.3414 10.1011C16.3804 10.7548 16.3738 11.4105 16.3804 12.0653C17.6332 12.022 18.8843 11.893 20.1363 11.8272C21.4721 11.6775 22.8064 11.485 24.1484 11.4159C25.2942 11.3622 26.4762 11.1591 27.5942 11.6005C27.8811 11.6761 28.0723 12.2131 27.8401 12.5033C27.5348 12.9484 27.0654 13.0847 26.6504 13.2797C25.7616 13.6936 24.8103 13.7371 23.8794 13.8436C22.0269 14.0049 20.1783 14.2179 18.3278 14.4031C17.6438 14.4759 16.9561 14.4994 16.2764 14.6298C15.4949 24.1807 15.1037 33.7762 14.8033 43.369C14.8064 44.0426 14.6064 44.8473 14.0661 45.0795C13.6156 45.3335 13.0599 44.9938 12.8896 44.4096C12.5148 43.0667 12.6095 41.6157 12.5978 40.2146C12.6067 38.1038 12.5779 35.9934 12.618 33.8842C12.8152 28.3386 13.0044 22.7868 13.4653 17.2636C13.5295 16.4392 13.6231 15.6195 13.667 14.7923C11.5535 14.91 9.43806 14.9263 7.32233 14.9151C6.30674 14.9384 5.29208 14.8333 4.28223 14.7055C3.18997 14.543 2.06605 14.3694 1.06759 13.7347C0.693563 13.4652 0.272919 13.1839 0.0882789 12.6534C-0.124076 12.0667 0.0537894 11.2307 0.545322 10.9927C1.22735 10.5898 2.07861 10.5527 2.73465 11.0559C2.94503 11.2223 3.1115 11.505 3.02442 11.841C3.54188 12.1013 4.11101 12.0406 4.65212 12.1347C5.16096 12.1759 5.6642 12.3235 6.17562 12.3134C8.15444 12.3024 10.1333 12.326 12.1121 12.2962C12.7175 12.2788 13.3249 12.2861 13.9282 12.2032C13.8949 11.521 14.0401 10.8601 14.1005 10.188C14.1557 9.76475 14.1521 9.28507 14.3779 8.94058ZM106.599 24.9484C105.583 25.9985 104.827 27.4506 104.365 29.0194C105.527 28.3661 106.46 27.1952 107.36 26.0656C107.778 25.5435 108.225 24.9346 108.267 24.1412C107.648 24.0307 107.09 24.5252 106.599 24.9484ZM98.802 5.04666C98.3122 6.24335 97.9037 7.49219 97.5729 8.77568C97.0448 10.8067 96.6082 12.885 96.3171 14.9968C96.5015 14.7127 96.6115 14.3671 96.7358 14.037C97.0908 13.0749 97.4217 12.099 97.7498 11.1206C98.3954 9.2247 98.8544 7.23306 99.2503 5.22649C99.3448 4.7294 99.4357 4.22481 99.4311 3.70855C99.1554 4.09808 98.9929 4.58806 98.802 5.04666ZM98.3265 1.5846C98.7484 0.952317 99.3229 0.343192 100.007 0.40412C100.495 0.425202 100.948 0.837966 101.127 1.42976C101.393 2.28396 101.406 3.23845 101.305 4.14136C100.866 7.72137 99.915 11.1576 98.795 14.4674C98.6 15.0738 98.357 15.6529 98.1878 16.2717C99.8253 16.056 101.439 15.6394 103.06 15.2807C105.502 14.7353 107.928 13.9353 110.418 13.8931C110.758 13.8672 111.114 14.2095 111.13 14.6644C111.062 15.1084 110.709 15.2969 110.424 15.4568C110.617 16.3052 110.115 17.0045 109.655 17.503C109.07 18.0956 108.427 18.5792 107.803 19.0951C107.262 19.5008 106.728 19.967 106.114 20.1592C105.64 20.3229 105.055 19.8071 105.119 19.1335C105.156 18.5792 105.49 18.1464 105.837 17.8626C106.256 17.4721 106.668 17.0677 107.085 16.6732C103.786 17.5488 100.455 18.2162 97.1538 19.0892C96.8161 19.6619 96.6211 20.3404 96.3507 20.9626C96.057 21.6968 95.7326 22.4099 95.4448 23.1478C95.2526 23.6252 95.2668 24.1769 95.2285 24.6977C95.0872 26.9684 94.983 29.2613 95.201 31.5292C95.3213 32.7431 95.5512 33.9747 96.0761 35.0087C96.2744 35.3994 96.6337 35.7553 97.0126 35.5842C97.9296 35.2169 98.5848 34.2599 99.2361 33.3992C99.6662 32.7928 100.066 32.1502 100.457 31.502C100.628 31.2426 100.742 30.9352 100.832 30.6166C100.916 30.2173 101.273 30.113 101.41 29.7586C101.732 29.1037 102.187 28.558 102.405 27.8241C102.944 26.207 103.741 24.7323 104.735 23.5333C105.502 22.6255 106.422 21.8926 107.442 21.5929C108.152 21.3821 108.951 21.5358 109.517 22.1581C110.195 22.8997 110.392 24.2204 110.091 25.2805C109.769 26.4388 109.131 27.3922 108.45 28.2256C107.141 29.8166 105.611 31.1546 103.889 31.8616C103.915 32.7223 103.819 33.6498 104.159 34.4346C104.382 35.0596 104.97 35.2892 105.464 35.227C105.84 35.2169 106.165 34.9506 106.496 34.7521C107.858 33.9438 108.942 32.5647 110.032 31.2701C111.413 29.5451 112.724 27.726 113.94 25.804C114.399 25.1192 114.847 24.4089 115.405 23.8534C115.723 23.5381 116.22 23.5381 116.461 23.9921C116.427 22.4546 116.532 20.9207 116.529 19.3831C116.526 17.8899 116.691 16.4082 116.709 14.9176C116.785 12.6421 116.802 10.363 116.851 8.08758C116.837 7.16479 117.907 6.86581 118.246 7.62842C118.684 8.53995 118.711 9.65942 118.781 10.6988C118.836 13.4283 118.761 16.159 118.684 18.8869C118.617 21.6299 118.378 24.3606 118.19 27.0922C118.157 27.6962 117.803 28.2975 117.309 28.3012C116.891 28.2284 116.514 27.7609 116.481 27.2053C116.429 26.4562 116.467 25.7023 116.457 24.951C116.216 25.8164 115.812 26.5827 115.383 27.307C114.148 29.4038 112.815 31.4053 111.362 33.2531C110.18 34.7385 108.982 36.2488 107.54 37.3103C106.556 38.0297 105.372 38.4213 104.257 38.0519C103.577 37.7368 102.91 37.2398 102.511 36.4348C102.067 35.6039 101.761 34.6504 101.624 33.6557C100.907 34.783 100.148 35.8781 99.2813 36.8133C98.5358 37.4902 97.6739 38.0904 96.7416 38.0741C95.7698 38.0246 94.9369 37.1602 94.4377 36.1284C93.5397 34.2835 93.2644 32.075 93.1047 29.9408C92.2036 31.5851 91.208 33.1438 90.114 34.5785C89.3202 35.6399 88.447 36.6567 87.3882 37.2496C86.4173 37.778 85.2076 37.7978 84.3344 36.9597C83.6114 36.2426 83.1847 35.1228 82.9983 33.9882C82.6587 31.9794 82.8327 29.8663 83.3617 27.9393C83.6487 26.8643 83.9604 25.7953 84.3728 24.7896C84.588 24.2788 84.866 23.7418 85.312 23.5471C86.056 23.2096 86.8869 24.224 86.7208 25.2064C86.6021 25.8634 86.336 26.4537 86.1457 27.0789C85.5196 28.9834 84.9828 31.033 85.1434 33.1351C85.1991 33.7937 85.3263 34.5513 85.7842 34.9382C86.1969 35.2333 86.6728 34.9368 87.0547 34.6926C88.2134 33.8715 89.1611 32.6467 90.065 31.4174C91.1458 29.9383 92.0705 28.2874 92.9965 26.6459C93.1168 26.3171 93.0739 25.9331 93.1123 25.5796C93.1801 23.6213 93.5436 21.7069 93.6814 19.7613C91.8105 20.0825 89.9352 20.4147 88.0463 20.5029C87.0546 20.5251 85.9716 20.5719 85.1024 19.8515C84.5829 19.4474 84.4168 18.4134 84.8385 17.823C85.2056 17.3853 85.7539 17.3259 86.2289 17.3878C86.7016 17.4238 86.9714 18.1192 87.4669 18.0462C89.4262 17.9792 91.3774 17.6878 93.3179 17.3383C93.5494 17.2701 93.8172 17.2858 94.0177 17.1087C94.3231 15.5636 94.5288 13.99 94.8224 12.4415C95.2688 10.043 95.8063 7.66323 96.5774 5.40377C97.0448 4.05081 97.5946 2.7305 98.3265 1.5846Z" fill="black"/>
</svg>
