<svg xmlns="http://www.w3.org/2000/svg" width="119" height="46" fill="none" viewBox="0 0 119 46">
  <path fill="#000" d="M116.668 34.432c.513-.213 1.185-.016 1.5.58.273.606-.066 1.274-.422 1.67-.558.709-1.625.056-1.656-.92-.068-.549.163-1.145.578-1.33Zm-93.946-8.859a10.838 10.838 0 0 0-1.69 3.442c.331-.112.602-.4.889-.628.876-.737 1.618-1.698 2.357-2.646.323-.444.655-.982.64-1.625-.857-.012-1.608.71-2.196 1.457Zm-.557-2.831c.76-.666 1.632-1.213 2.565-1.237.797-.021 1.629.54 1.956 1.512.283.782.273 1.708.005 2.494-.421 1.294-1.205 2.31-2.005 3.223-1.211 1.362-2.592 2.499-4.128 3.126.017.959-.075 2.022.395 2.84.406.582 1.105.656 1.648.395.725-.428 1.452-.883 2.074-1.54 1.791-1.828 3.377-3.97 4.896-6.168.784-1.13 1.47-2.383 2.357-3.387.26-.31.68-.517 1.006-.249.305.259.282.808.18 1.205-.188.749-.531 1.412-.886 2.046-1.844 3.184-3.933 6.14-6.273 8.722-1.17 1.238-2.526 2.447-4.095 2.468-.858.06-1.683-.446-2.312-1.174-.946-1.32-1.38-3.156-1.34-4.938-.254-.087-.529-.2-.68-.501-.24-.417-.091-1.006.165-1.346.242-.172.526-.205.79-.303.195-.645.328-1.32.54-1.956.672-2.052 1.734-3.93 3.142-5.232Zm58.983-.629c.25-.48.522-1.017.971-1.202.439-.18 1.04.073 1.162.7.09.363-.055.716-.193 1.02a29.31 29.31 0 0 0-.96 2.356c-1.258 2.968-2.471 5.97-3.714 8.949-.534 1.207-1.02 2.49-1.805 3.465-.43.559-1.07.815-1.666.729-.802-.191-1.222-1.207-1.435-2.13-.294-1.34-.356-2.741-.464-4.12-.771 1.722-1.608 3.434-2.732 4.809-.627.754-1.45 1.435-2.343 1.226-.779-.126-1.293-1.037-1.532-1.937-.397-1.295-.337-2.709-.34-4.076.017-1.86.047-3.72.083-5.578l-.036-.428c-.284.168-.463.52-.675.803-1.215 1.83-2.209 3.884-3.14 5.97-.754 1.677-1.412 3.426-2.188 5.089-.317.588-.757 1.244-1.362 1.218-.66.015-1.239-.674-1.359-1.493-.074-1.759.173-3.505.488-5.207.472-2.508 1.123-4.952 1.785-7.384.208-.75.414-1.504.659-2.235.283-.906 1.364-1.16 1.842-.376.378.528.26 1.313.142 1.946-.365 1.787-.853 3.527-1.2 5.322.944-1.745 1.874-3.515 2.986-5.09.457-.628.99-1.176 1.594-1.544.486-.29 1.082-.272 1.536.11.588.459.88 1.337 1 2.179.192 1.35.128 2.73.121 4.094-.021 1.901-.199 3.85.16 5.714.108-.065.22-.125.314-.224.768-.836 1.361-1.895 1.949-2.938.777-1.42 1.518-2.885 2.107-4.453.163-1.04.05-2.147.318-3.168.128-.34.33-.65.578-.854.493-.124 1.095.146 1.29.788.197.687.183 1.435.22 2.157.046 1.447.145 2.89.26 4.33.084 1.017.098 2.048.262 3.05.516-.856.896-1.834 1.33-2.76 1.349-2.926 2.562-5.958 3.987-8.827Zm6.267-7.995c.738-.21 1.415.812 1.243 1.734-.098.5-.353 1.104-.803 1.115-.7-.086-1.245-1.016-1.114-1.917.05-.453.334-.828.674-.932Zm-31.619-3.08c2.444-.513 4.897-1.262 7.39-1.04.708.06 1.504.353 1.887 1.198.36.692-.03 1.75-.649 1.877-.362-.042-.423-.658-.773-.731-.563-.175-1.148-.076-1.72-.027-1.99.243-3.976.636-5.916 1.27-.346.057-.285.608-.361.94-.28 2.54-.7 5.051-.954 7.597-.4 3.547-.704 7.108-1.033 10.666-.122 1.48-.408 2.97-.22 4.464.1 1.022-.02 2.046-.175 3.047.732-.062 1.445-.31 2.167-.474a30.287 30.287 0 0 1 3.817-.601c.539-.016 1.11-.029 1.611.268.273.167.539.617.326.998-.335.53-.829.905-1.351 1.032-.982.294-1.984.447-2.966.742-2.14.534-4.28 1.08-6.373 1.874-.656.264-1.334.49-1.93.947-.307.205-.406.727-.747.864-.701.27-1.493-.57-1.405-1.517.08-.819.616-1.372 1.11-1.798 1.103-.943 2.434-1.192 3.66-1.744-.25-3.069.009-6.158.195-9.222.13-2.485.454-4.943.768-7.398.434-3.365 1.014-6.695 1.558-10.032-4.041.98-7.78 3.328-11.748 4.663-.83.223-1.75.554-2.557.059-.577-.342-.73-1.378-.407-2.044a1.65 1.65 0 0 1 .952-.86c1.266-.453 2.595-.439 3.894-.552 3.223-1.386 6.408-2.976 9.748-3.835.297-.112.7-.071.86-.484.27-.58 1.033-.766 1.343-.148ZM14.379 8.94c.25-.377.671-.64 1.053-.46.507.26.863.92.91 1.62.04.654.033 1.31.04 1.964 1.252-.043 2.503-.172 3.755-.238 1.336-.15 2.67-.342 4.012-.411 1.146-.054 2.328-.257 3.446.184.287.076.478.613.246.903-.305.445-.775.582-1.19.777-.888.414-1.84.457-2.77.564-1.853.16-3.702.374-5.552.56-.684.072-1.372.095-2.052.226-.781 9.55-1.172 19.146-1.473 28.739.003.674-.197 1.478-.737 1.71-.45.255-1.006-.085-1.176-.67-.375-1.342-.28-2.793-.292-4.194.009-2.111-.02-4.222.02-6.33.197-5.546.386-11.098.847-16.621.065-.825.158-1.644.202-2.472-2.114.118-4.229.134-6.345.123-1.015.023-2.03-.082-3.04-.21-1.092-.162-2.216-.336-3.214-.97-.374-.27-.795-.551-.98-1.082-.212-.586-.034-1.422.457-1.66.682-.403 1.534-.44 2.19.063.21.166.377.449.29.785.517.26 1.086.2 1.627.294.509.04 1.012.188 1.524.178 1.978-.01 3.957.013 5.936-.017.605-.017 1.213-.01 1.816-.093-.033-.682.112-1.343.172-2.015.056-.423.052-.903.278-1.247ZM106.6 24.947c-1.016 1.05-1.772 2.503-2.234 4.071 1.162-.653 2.095-1.824 2.995-2.953.418-.522.865-1.131.907-1.925-.619-.11-1.177.384-1.668.807Zm-7.798-19.9a28.872 28.872 0 0 0-1.23 3.729 54.12 54.12 0 0 0-1.255 6.22c.184-.283.295-.629.419-.959.355-.962.686-1.938 1.014-2.916.645-1.896 1.104-3.888 1.5-5.895.095-.497.186-1.001.181-1.517-.276.39-.438.88-.629 1.338Zm-.476-3.462c.422-.633.997-1.242 1.681-1.18.488.02.941.433 1.12 1.025.266.854.279 1.808.178 2.711-.439 3.58-1.39 7.017-2.51 10.326-.195.607-.438 1.186-.607 1.805 1.637-.216 3.251-.633 4.872-.991 2.442-.546 4.868-1.346 7.358-1.388.34-.026.696.316.712.771-.068.444-.421.633-.706.793.193.848-.309 1.547-.769 2.046-.585.593-1.228 1.076-1.852 1.592-.541.406-1.075.872-1.689 1.064-.474.164-1.059-.352-.995-1.025.037-.555.371-.988.718-1.271.419-.39.831-.795 1.248-1.19-3.299.876-6.63 1.543-9.931 2.416-.338.573-.533 1.251-.803 1.874-.294.734-.618 1.447-.906 2.185-.192.477-.178 1.029-.216 1.55-.142 2.27-.246 4.563-.028 6.831.12 1.214.35 2.446.875 3.48.198.39.558.746.937.575.917-.367 1.572-1.324 2.223-2.185.43-.606.83-1.249 1.221-1.897.171-.26.285-.567.375-.885.084-.4.441-.504.578-.858.322-.655.777-1.201.995-1.935.539-1.617 1.336-3.092 2.33-4.29.767-.909 1.687-1.641 2.707-1.941.71-.21 1.509-.057 2.075.565.678.742.875 2.062.574 3.122-.322 1.159-.96 2.112-1.641 2.946-1.309 1.59-2.839 2.929-4.561 3.636.026.86-.07 1.788.27 2.573.223.625.811.854 1.305.792.376-.01.701-.276 1.032-.475 1.362-.808 2.446-2.187 3.536-3.482a60.535 60.535 0 0 0 3.908-5.466c.459-.685.907-1.395 1.465-1.95.318-.316.815-.316 1.056.138-.034-1.537.071-3.071.068-4.609-.003-1.493.162-2.975.18-4.465.076-2.276.093-4.555.142-6.83-.014-.923 1.056-1.222 1.395-.46.438.912.465 2.031.535 3.07.055 2.73-.02 5.461-.097 8.189-.067 2.743-.306 5.474-.494 8.205-.033.604-.387 1.206-.881 1.21-.418-.074-.795-.541-.828-1.097-.052-.749-.014-1.503-.024-2.254-.241.865-.645 1.632-1.074 2.356-1.235 2.097-2.568 4.098-4.021 5.946-1.182 1.486-2.38 2.996-3.822 4.057-.984.72-2.168 1.111-3.283.742-.68-.315-1.347-.812-1.746-1.617a8.35 8.35 0 0 1-.887-2.78c-.717 1.128-1.476 2.223-2.343 3.158-.745.677-1.607 1.277-2.54 1.261-.971-.05-1.804-.914-2.303-1.946-.898-1.845-1.174-4.053-1.333-6.187a36.866 36.866 0 0 1-2.991 4.637c-.794 1.062-1.667 2.079-2.726 2.672-.97.528-2.18.548-3.054-.29-.723-.717-1.15-1.837-1.336-2.972-.34-2.009-.165-4.122.364-6.049.287-1.075.598-2.144 1.01-3.15.216-.51.494-1.047.94-1.242.744-.337 1.575.677 1.409 1.66-.119.656-.385 1.247-.575 1.872-.626 1.904-1.163 3.954-1.003 6.056.056.659.183 1.416.641 1.803.413.295.889-.001 1.27-.245 1.16-.822 2.107-2.046 3.011-3.276 1.08-1.479 2.005-3.13 2.931-4.771.12-.329.078-.713.116-1.066.068-1.959.432-3.873.57-5.819-1.871.322-3.747.654-5.636.742-.991.022-2.074.069-2.944-.651-.52-.405-.685-1.439-.264-2.029.368-.438.916-.497 1.39-.435.474.036.743.731 1.239.658 1.96-.067 3.91-.358 5.85-.708.232-.068.5-.052.7-.23.306-1.544.512-3.118.805-4.667.447-2.398.984-4.778 1.755-7.037.468-1.353 1.018-2.673 1.75-3.82Z"/>
</svg>
